# xmcd
#
# Track frame offsets:
#	150
#	11500
#	26437
#	37100
#	47700
#	59137
#	71550
#	86650
#	99037
#	111712
#	130962
#	143812
#	161337
#	174725
#	187212
#	200935
#	214587
#	227662
#	241612
#	258050
#	270300
#	283287
#	292975
#	306487
#
# Disc length: 4245 seconds
# Revision: 0
# Processed by: cddbd v1.5.2PL0 Copyright (c) Steve Scherf et al.
# Submitted via: dBpowerAMP V12.0
#
DISCID=69109318
DTITLE=Various Artist - Academy of Contry Music's Country Treasures Vol 2
DYEAR=1997
DGENRE=Country
TTITLE0=Tammy Wynette - Good Lovin (Makes It Right)
TTITLE1=Don Gibson - Woman (Sensuous Woman)
TTITLE2=Sonny James - Empty Arms
TTITLE3=Jerry Reed - When You're Hot, You're Hot
TTITLE4=Donna Fargo - The Happiest Girl in the Whole USA
TTITLE5=Tom T. Hall - The Year That Clayton Delaney Died
TTITLE6=Merle Haggard - Daddy Frank (The Guitar Man)
TTITLE7=Jerry Wallace - If You Leave Me Tonight I'll Cry
TTITLE8=Lynn Anderson - How Can I Unlove You
TTITLE9=Tammy Wynette - Bedtime Story
TTITLE10=Mickey Gilley - Room Full of Roses
TTITLE11=Ray Price - She's Got to Be a Saint
TTITLE12=George Jones and Tammy Wynette - We're Gonna Hold on
TTITLE13=Charlie Rich - a Very Special Love Song
TTITLE14=Barbara Fairchild - Teddy Bear Song
TTITLE15=Conway Twitty - You've Never Been This Far Before
TTITLE16=Merle Haggard - Everybody's Had the Blues
TTITLE17=Tanya Tucker - What's Your Mama's Name
TTITLE18=Cal Smith - Country Bumpkin
TTITLE19=Charlie Rich - The Most Beautiful Girl
TTITLE20=Tammy Wynette - My Man (Understands)
TTITLE21=Johnny Rodriguez - Ridin My Thumb to Mexico
TTITLE22=Roy Clark - Come Live With Me
TTITLE23=Dolly Parton - Jolene
EXTD=
EXTT0=
EXTT1=
EXTT2=
EXTT3=
EXTT4=
EXTT5=
EXTT6=
EXTT7=
EXTT8=
EXTT9=
EXTT10=
EXTT11=
EXTT12=
EXTT13=
EXTT14=
EXTT15=
EXTT16=
EXTT17=
EXTT18=
EXTT19=
EXTT20=
EXTT21=
EXTT22=
EXTT23=
PLAYORDER=
